<svg width="36" height="36" viewBox="0 0 36 36" fill="none" xmlns="http://www.w3.org/2000/svg">
<path d="M31.2148 17.5555C31.2044 16.3226 29.5222 15.3509 27.4639 15.3509H23.1696C22.5845 15.3509 22.365 15.2464 22.0098 14.8598L14.9258 7.2011C14.6959 6.95033 14.4242 6.82495 14.1212 6.82495H12.7734C12.5017 6.82495 12.345 7.07571 12.4704 7.35782L16.1378 15.3404L10.7778 15.936L8.86569 12.5298C8.71941 12.2686 8.5 12.1537 8.1552 12.1537H7.68502C7.40292 12.1537 7.21484 12.3417 7.21484 12.6238V22.4872C7.21484 22.7693 7.40292 22.9574 7.68502 22.9574H8.1552C8.5 22.9574 8.71941 22.8424 8.86569 22.5812L10.7778 19.1646L16.1378 19.7706L12.4704 27.7532C12.345 28.0353 12.5017 28.2861 12.7734 28.2861H14.1212C14.4242 28.2861 14.6959 28.1502 14.9258 27.9099L22.0098 20.2512C22.365 19.8646 22.5845 19.7601 23.1696 19.7601H27.4639C29.5222 19.7601 31.2044 18.778 31.2148 17.5555Z" fill="white"/>
</svg>
