<svg width="36" height="36" viewBox="0 0 36 36" fill="none" xmlns="http://www.w3.org/2000/svg">
<path d="M12.9863 12.2857H14.9625V15.7143H10.7363L11.8763 13.0036C12.0563 12.5714 12.495 12.2857 12.9863 12.2857ZM16.7625 15.7143V12.2857H19.8075C20.1713 12.2857 20.5163 12.4429 20.745 12.7143L23.265 15.7143H16.7625ZM26.37 15.75L22.62 11.2857C21.9375 10.4714 20.9025 10 19.8075 10H12.9863C11.5125 10 10.1888 10.8536 9.645 12.1536L8.085 15.8714C7.1925 16.2071 6.5625 17.0321 6.5625 18V22C6.5625 22.6321 7.09875 23.1429 7.7625 23.1429H9.01125C9.29625 24.7643 10.7775 26 12.5625 26C14.3475 26 15.8288 24.7643 16.1138 23.1429H21.0113C21.2963 24.7643 22.7775 26 24.5625 26C26.3475 26 27.8288 24.7643 28.1138 23.1429H29.3625C30.0263 23.1429 30.5625 22.6321 30.5625 22V20.2857C30.5625 17.9571 28.7325 16.0357 26.37 15.75ZM22.8638 22C22.9401 21.7849 23.0607 21.5863 23.2183 21.4159C23.3759 21.2455 23.5676 21.1066 23.782 21.0073C23.9965 20.9081 24.2296 20.8504 24.4677 20.8376C24.7057 20.8248 24.9441 20.8572 25.169 20.9329C25.3938 21.0086 25.6006 21.1261 25.7773 21.2786C25.954 21.4311 26.0972 21.6155 26.1985 21.8211C26.2998 22.0267 26.3571 22.2494 26.3673 22.4763C26.3774 22.7032 26.3401 22.9298 26.2575 23.1429C26.1811 23.358 26.0606 23.5565 25.903 23.727C25.7453 23.8974 25.5537 24.0362 25.3392 24.1355C25.1247 24.2348 24.8917 24.2925 24.6536 24.3053C24.4155 24.318 24.1771 24.2856 23.9523 24.2099C23.7275 24.1342 23.5207 24.0167 23.3439 23.8642C23.1672 23.7118 23.024 23.5274 22.9228 23.3218C22.8215 23.1162 22.7641 22.8934 22.754 22.6665C22.7439 22.4396 22.7812 22.2131 22.8638 22ZM12.5625 20.8571C13.0399 20.8571 13.4977 21.0378 13.8353 21.3592C14.1729 21.6807 14.3625 22.1168 14.3625 22.5714C14.3625 23.0261 14.1729 23.4621 13.8353 23.7836C13.4977 24.1051 13.0399 24.2857 12.5625 24.2857C12.0851 24.2857 11.6273 24.1051 11.2897 23.7836C10.9521 23.4621 10.7625 23.0261 10.7625 22.5714C10.7625 22.1168 10.9521 21.6807 11.2897 21.3592C11.6273 21.0378 12.0851 20.8571 12.5625 20.8571Z" fill="white"/>
</svg>
