<svg width="32" height="32" viewBox="0 0 32 32" fill="none" xmlns="http://www.w3.org/2000/svg">
<path d="M15.5 4C13.2255 4 11.0021 4.67446 9.11095 5.9381C7.21978 7.20174 5.7458 8.99779 4.87539 11.0991C4.00498 13.2005 3.77724 15.5128 4.22097 17.7435C4.6647 19.9743 5.75997 22.0234 7.36828 23.6317C8.97658 25.24 11.0257 26.3353 13.2565 26.779C15.4872 27.2228 17.7995 26.995 19.9009 26.1246C22.0022 25.2542 23.7983 23.7802 25.0619 21.8891C26.3255 19.9979 27 17.7745 27 15.5C26.9968 12.451 25.7841 9.5278 23.6282 7.37183C21.4722 5.21586 18.549 4.00322 15.5 4ZM25.2308 15.5C25.2317 16.7484 24.9914 17.9852 24.5231 19.1424L19.5803 16.1026C19.3701 15.973 19.135 15.8889 18.8903 15.8561L16.3669 15.5155C16.0192 15.4701 15.6659 15.5284 15.3511 15.683C15.0364 15.8376 14.7743 16.0817 14.5977 16.3846H13.6335L13.2133 15.5155C13.0971 15.2735 12.9271 15.0613 12.7163 14.8951C12.5054 14.7289 12.2594 14.6132 11.9969 14.5568L11.1123 14.3655L11.977 12.8462H13.8248C14.1238 12.8456 14.4178 12.7695 14.6795 12.625L16.0341 11.8775C16.1531 11.8112 16.2644 11.7318 16.3658 11.6409L19.3414 8.94942C19.6398 8.68206 19.8381 8.32099 19.9036 7.92578C19.9691 7.53057 19.898 7.12482 19.7019 6.77548L19.6621 6.70361C21.3272 7.49312 22.7342 8.73865 23.7199 10.2956C24.7055 11.8526 25.2294 13.6572 25.2308 15.5ZM5.76924 15.5C5.76776 14.0537 6.09044 12.6254 6.71356 11.3202L7.9675 14.6674C8.072 14.9445 8.2444 15.191 8.4689 15.3841C8.69339 15.5773 8.9628 15.7111 9.25241 15.7731L11.6221 16.2829L12.0434 17.1587C12.1896 17.4565 12.4162 17.7076 12.6975 17.8834C12.9789 18.0593 13.3039 18.1529 13.6357 18.1538H13.7993L12.9999 19.9485C12.859 20.2645 12.8139 20.6149 12.8701 20.9563C12.9263 21.2977 13.0814 21.6151 13.3161 21.8692L13.3316 21.8847L15.5 24.1184L15.2855 25.2241C12.7442 25.165 10.3267 24.115 8.54883 22.2983C6.77094 20.4816 5.77345 18.0419 5.76924 15.5Z" fill="white"/>
</svg>
