<svg width="36" height="36" viewBox="0 0 36 36" fill="none" xmlns="http://www.w3.org/2000/svg">
<path d="M8.29449 14.8444H10.7345V13.5591C10.7345 12.6558 11.2281 12.1715 12.1408 12.1715H15.5867C16.4994 12.1715 16.993 12.6558 16.993 13.5591V14.8444H19.0884V13.5591C19.0884 12.6558 19.582 12.1715 20.532 12.1715H23.8009C24.7601 12.1715 25.2537 12.6558 25.2537 13.5591V14.8444H27.6938V12.1715C27.6938 10.402 26.7438 9.47998 25.0116 9.47998H10.9767C9.24443 9.47998 8.29449 10.402 8.29449 12.1715V14.8444ZM5.99414 24.8001C5.99414 25.303 6.3201 25.6197 6.8137 25.6197H7.39111C7.88471 25.6197 8.21067 25.303 8.21067 24.8001V23.459C8.32243 23.487 8.64839 23.5056 8.88122 23.5056H27.1071C27.3399 23.5056 27.6659 23.487 27.7776 23.459V24.8001C27.7776 25.303 28.1036 25.6197 28.5972 25.6197H29.1746C29.6682 25.6197 29.9941 25.303 29.9941 24.8001V19.1377C29.9941 17.2844 28.9697 16.2693 27.1071 16.2693H8.88122C7.01859 16.2693 5.99414 17.2844 5.99414 19.1377V24.8001Z" fill="#878C9B"/>
</svg>
