<svg width="24" height="24" viewBox="0 0 24 24" fill="none" xmlns="http://www.w3.org/2000/svg">
<path d="M12.0001 15.8471C12.2637 15.8396 12.5048 15.7416 12.7007 15.5307L18.4261 9.66965C18.5919 9.50392 18.6823 9.29298 18.6823 9.04437C18.6823 8.54716 18.2905 8.14789 17.7933 8.14789C17.5522 8.14789 17.3187 8.24582 17.1454 8.41909L12.0076 13.7001L6.8547 8.41909C6.68143 8.25336 6.45543 8.14789 6.20682 8.14789C5.70961 8.14789 5.31787 8.54716 5.31787 9.04437C5.31787 9.29298 5.40827 9.50392 5.57401 9.66965L11.307 15.5307C11.5104 15.7416 11.7364 15.8471 12.0001 15.8471Z" fill="#2A2B30"/>
</svg>
