<svg width="130" height="22" viewBox="0 0 130 22" fill="none" xmlns="http://www.w3.org/2000/svg">
<g clip-path="url(#clip0_614_3079)">
<path d="M14.3453 18.8474C14.6485 18.8474 14.93 18.7794 15.2116 18.5979L18.3304 16.7155C18.9585 16.3526 19.6948 16.1711 20.4096 16.2619C24.1997 16.7155 26.8637 17.4639 27.6434 17.7134C27.795 17.7588 27.9899 17.6907 28.0766 17.5546C28.2065 17.3959 28.3581 17.1237 28.4881 16.7381C28.5964 16.3753 28.618 16.0577 28.5964 15.8309C28.5747 15.6495 28.4664 15.4907 28.2931 15.4454C27.0586 15.0825 21.6224 13.5402 14.302 13.5402C6.98148 13.5402 1.54528 15.0825 0.310762 15.4454C0.137497 15.4907 0.0292054 15.6495 0.00754721 15.8309C-0.014111 16.035 0.00754721 16.3526 0.115838 16.7381C0.224129 17.1237 0.397395 17.3959 0.527344 17.5546C0.635635 17.6907 0.8089 17.7588 0.960508 17.7134C1.7402 17.4639 4.42582 16.7155 8.19434 16.2619C8.93072 16.1711 9.64544 16.3299 10.2735 16.7155L13.4789 18.5979C13.7388 18.7794 14.0421 18.8474 14.3453 18.8474ZM9.12564 8.23299C9.29891 8.55051 9.55881 8.75464 9.88368 8.84536C10.2086 8.93608 10.5334 8.89072 10.8366 8.70928C11.1399 8.52783 11.3348 8.25567 11.4214 7.91546C11.508 7.57526 11.4647 7.23505 11.2915 6.91753L8.4759 1.81443C8.38927 1.65567 8.19434 1.58763 8.04274 1.61031C7.8045 1.63299 7.50128 1.74639 7.13309 1.9732C6.7649 2.2 6.505 2.4268 6.37505 2.60825C6.26676 2.76701 6.24511 2.94846 6.33174 3.10722C6.31008 3.15258 9.12564 8.23299 9.12564 8.23299ZM6.54832 11.8845C6.85153 12.066 7.19807 12.0887 7.50128 12.0206C7.82615 11.9299 8.08605 11.7258 8.25932 11.4082C8.43258 11.0907 8.45424 10.7278 8.38927 10.4103C8.32429 10.0928 8.10771 9.79794 7.80449 9.61649L2.9314 6.66804C2.7798 6.57732 2.58487 6.6 2.45492 6.7134C2.26 6.84949 2.06508 7.12165 1.84849 7.50722C1.63191 7.89279 1.52362 8.23299 1.50196 8.45979C1.4803 8.66391 1.56694 8.82268 1.69689 8.9134L6.54832 11.8845ZM15.5798 6.44124C15.5798 6.80412 15.4282 7.12165 15.2333 7.37113C14.995 7.62062 14.7135 7.73402 14.3453 7.73402C13.9987 7.73402 13.6955 7.57526 13.4573 7.37113C13.219 7.12165 13.1108 6.8268 13.1108 6.44124V0.56701C13.1108 0.362887 13.219 0.226807 13.3923 0.158766C13.5872 0.0453636 13.9121 0 14.3453 0C14.7784 0 15.1033 0.068044 15.2982 0.158766C15.4498 0.249487 15.5798 0.385567 15.5798 0.56701V6.44124ZM19.5432 8.23299C19.37 8.55051 19.1101 8.75464 18.7852 8.84536C18.4603 8.93608 18.1355 8.89072 17.8322 8.70928C17.529 8.52783 17.3341 8.25567 17.2475 7.91546C17.1608 7.57526 17.2041 7.23505 17.3774 6.91753L20.193 1.81443C20.2796 1.65567 20.4745 1.58763 20.6261 1.61031C20.8644 1.63299 21.1676 1.74639 21.5358 1.9732C21.904 2.2 22.1639 2.4268 22.2938 2.60825C22.4021 2.76701 22.4238 2.94846 22.3371 3.10722L19.5432 8.23299ZM22.1206 11.8845C21.8173 12.066 21.4708 12.0887 21.1676 12.0206C20.8427 11.9299 20.5828 11.7258 20.4096 11.4082C20.2363 11.0907 20.2146 10.7278 20.2796 10.4103C20.3662 10.0701 20.5612 9.79794 20.8644 9.61649L25.7375 6.66804C25.8891 6.57732 26.084 6.6 26.214 6.7134C26.4089 6.84949 26.6038 7.12165 26.8204 7.50722C27.037 7.89279 27.1453 8.23299 27.1669 8.45979C27.1886 8.66391 27.1019 8.82268 26.972 8.9134L22.1206 11.8845ZM53.1784 7.84742H55.5175C55.6041 7.84742 55.6691 7.91547 55.7124 7.98351L58.0298 14.2433L60.2823 7.98351C60.3039 7.89279 60.3906 7.84742 60.4772 7.84742H62.773C62.9246 7.84742 63.0329 8.00618 62.9679 8.14227L57.2501 21.8639C57.2285 21.932 57.1418 22 57.0552 22H55.0627C54.9111 22 54.8028 21.8412 54.8677 21.7052L56.817 16.8969L52.9835 8.14227C52.9185 8.00618 53.0268 7.84742 53.1784 7.84742ZM87.7665 9.23093V8.07423C87.7665 7.96083 87.8748 7.84742 87.9831 7.84742H90.0623C90.1706 7.84742 90.2789 7.96083 90.2789 8.07423V17.3959C90.2789 17.5093 90.1706 17.6227 90.0623 17.6227H87.9831C87.8748 17.6227 87.7665 17.5093 87.7665 17.3959V16.1711C87.3334 16.8969 86.3587 17.8268 84.7777 17.8268C81.7456 17.8268 80.1862 15.4 80.1862 12.701C80.1862 9.16289 82.5252 7.66598 84.7127 7.66598C86.1422 7.62062 87.1384 8.34639 87.7665 9.23093ZM82.6552 12.701C82.6552 14.3794 83.6515 15.6722 85.2325 15.6722C86.8136 15.6722 87.8315 14.5608 87.8315 12.8371C87.8315 11.1134 86.8352 9.79794 85.1675 9.79794C83.5865 9.77526 82.6552 11.068 82.6552 12.701ZM92.1415 17.3732V8.05155C92.1415 7.93814 92.2498 7.82474 92.3581 7.82474H94.4372C94.5455 7.82474 94.6538 7.93814 94.6538 8.05155V9.32165C95.1303 8.43711 96.0616 7.62062 97.621 7.62062C99.2237 7.62062 101 8.43711 101 12.2247V17.3505C101 17.4639 100.891 17.5773 100.783 17.5773H98.7039C98.5956 17.5773 98.4873 17.4639 98.4873 17.3505V12.2701C98.4873 11.3629 98.2707 9.79794 96.733 9.79794C95.1953 9.79794 94.6538 11.2268 94.6538 12.5423V17.3732C94.6538 17.4866 94.5455 17.6 94.4372 17.6H92.3581C92.2281 17.6 92.1415 17.5093 92.1415 17.3732ZM102.754 17.3732V8.05155C102.754 7.93814 102.862 7.82474 102.971 7.82474H105.05C105.158 7.82474 105.266 7.93814 105.266 8.05155V9.32165C105.743 8.43711 106.674 7.62062 108.234 7.62062C109.836 7.62062 111.612 8.43711 111.612 12.2247V17.3505C111.612 17.4639 111.504 17.5773 111.396 17.5773H109.316C109.208 17.5773 109.1 17.4639 109.1 17.3505V12.2701C109.1 11.3629 108.883 9.79794 107.346 9.79794C105.808 9.79794 105.266 11.2268 105.266 12.5423V17.3732C105.266 17.4866 105.158 17.6 105.05 17.6H102.971C102.841 17.6 102.754 17.5093 102.754 17.3732ZM124.499 7.84742H126.513C126.621 7.84742 126.73 7.96083 126.73 8.07423V10.0021C127.119 8.09691 128.701 7.43918 129.848 7.71134C129.957 7.73402 130 7.82474 130 7.91546V10.0474C130 10.1835 129.892 10.2969 129.74 10.2515C127.618 9.82062 126.773 11.0227 126.773 12.6783V17.3732C126.773 17.4866 126.665 17.6 126.556 17.6H124.477C124.369 17.6 124.261 17.4866 124.261 17.3732V8.05155C124.282 7.93814 124.391 7.84742 124.499 7.84742ZM39.4688 9.9567C38.819 9.7299 38.4725 9.59381 37.9744 9.41237C37.4546 9.20825 36.5449 8.6866 36.5449 7.80206C36.5449 6.9402 37.108 6.3732 38.2776 6.3732C39.3388 6.3732 39.9236 6.91752 40.3134 7.77938C40.3784 7.89278 40.5084 7.93814 40.6166 7.89278L42.306 6.84949C42.3926 6.78145 42.4359 6.66804 42.3926 6.55464C41.8728 5.37526 40.6816 3.94639 38.2992 3.94639C35.6569 3.94639 34.0109 5.60206 34.0109 7.7567C34.0109 9.91134 35.3754 11.0227 37.2163 11.6804C37.8877 11.9299 38.1693 12.0206 38.7324 12.2247C39.8153 12.6103 40.3134 13.132 40.3134 13.8351C40.3134 14.5381 39.8803 15.3773 38.1909 15.3773C36.6532 15.3773 36.1117 14.5155 35.7869 13.7216C35.7436 13.6082 35.592 13.5402 35.4837 13.6082L33.7077 14.6742C33.6211 14.7423 33.5777 14.833 33.6211 14.9464C34.3141 16.7155 36.1767 17.7588 38.2776 17.7588C40.7466 17.7588 42.8258 16.4433 42.8258 13.7897C42.8258 11.1361 40.0969 10.1835 39.4688 9.9567ZM53.0918 15.0598C53.0268 14.9464 52.8968 14.901 52.7886 14.9918C51.9872 15.6041 51.0559 15.6268 50.3412 14.4701C49.7347 13.4948 49.02 12.2928 49.02 12.2928L52.1605 8.21031C52.2688 8.05155 52.1821 7.84742 52.0089 7.84742H49.5615C49.4965 7.84742 49.4315 7.8701 49.3882 7.93814L46.6809 11.8392V3.99175C46.6809 3.87835 46.5727 3.76495 46.4644 3.76495H44.3852C44.2769 3.76495 44.1686 3.87835 44.1686 3.99175V17.3959C44.1686 17.5093 44.2769 17.6227 44.3852 17.6227H46.4644C46.5727 17.6227 46.6809 17.5093 46.6809 17.3959V13.0412C46.6809 13.0412 48.0671 15.332 48.5869 16.1711C49.3016 17.3278 50.2979 17.8268 51.3808 17.8268C52.3987 17.8268 53.0701 17.532 53.8498 16.7381C53.9148 16.6701 53.9364 16.5567 53.8931 16.466L53.0918 15.0598ZM67.9709 11.9753C67.3212 11.7258 67.083 11.635 66.5848 11.4309C66.0867 11.2268 65.6319 10.9546 65.6319 10.5237C65.6319 10.0928 66 9.63918 66.7581 9.63918C67.4078 9.63918 67.8193 9.91134 68.0359 10.3876C68.1009 10.501 68.2308 10.5464 68.3175 10.4784L69.7686 9.59381C69.8769 9.52577 69.8985 9.38969 69.8335 9.29897C69.4437 8.5732 68.6423 7.6433 66.7581 7.6433C64.4407 7.6433 63.2278 9.04948 63.2278 10.6144C63.2278 12.1794 64.4407 12.9052 65.5452 13.3588C66.8014 13.9031 66.888 13.9258 67.0396 13.9938C67.4295 14.1526 67.906 14.4021 67.906 14.8784C67.906 15.3546 67.3862 15.7629 66.6065 15.7629C65.8701 15.7629 65.0471 15.4454 64.7006 14.5608C64.6572 14.4474 64.5056 14.3794 64.3973 14.4474L62.9246 15.332C62.8379 15.4 62.7946 15.4907 62.8379 15.6041C63.2711 16.7608 64.5273 17.8041 66.5848 17.8041C68.8156 17.8041 70.2884 16.5567 70.2884 14.8103C70.3533 13.0639 69.2055 12.4515 67.9709 11.9753ZM76.331 9.9567C77.2623 9.9567 77.9554 10.2515 78.5835 10.7278C78.6917 10.7959 78.8217 10.7732 78.8867 10.6598L79.753 9.09485C79.818 8.98144 79.7747 8.86804 79.688 8.8C78.8 8.16495 77.6955 7.59794 76.2227 7.59794C74.75 7.59794 73.3855 8.00618 72.4325 9.04948C71.4579 10.0701 71.0247 11.2722 71.0247 12.7237C71.0247 14.4474 71.7178 15.5588 72.4542 16.3526C73.1906 17.1237 74.5334 17.7814 76.2444 17.7814C77.7821 17.7814 78.93 17.101 79.7097 16.5794C79.7963 16.5113 79.818 16.3753 79.7747 16.2845L78.93 14.7423C78.865 14.6289 78.7351 14.5835 78.6268 14.6742C78.0637 15.0825 77.2623 15.4454 76.3743 15.4454C75.3564 15.4454 73.5154 14.8557 73.5154 12.701C73.4938 10.5691 75.3131 9.9567 76.331 9.9567ZM118.348 15.6495C117.525 15.6495 116.724 15.4454 116.16 14.9691C115.597 14.4928 115.316 13.9938 115.316 13.4041H122.723C122.831 13.4041 122.939 13.2907 122.939 13.1773C122.896 10.8639 122.181 9.79794 121.488 9.07216C120.774 8.32371 119.561 7.6433 117.958 7.6433C116.355 7.6433 115.121 8.25567 114.298 9.11753C113.475 9.97938 112.847 11.0907 112.847 12.7691C112.847 14.4474 113.496 15.5588 114.276 16.3753C115.056 17.1918 116.355 17.8041 118.196 17.8041C119.929 17.8041 121.402 17.1691 122.463 15.899C122.55 15.7856 122.528 15.6268 122.398 15.5588L120.925 14.6515C120.86 14.6062 120.752 14.6062 120.687 14.6742C119.951 15.4 119.019 15.6495 118.348 15.6495ZM117.958 9.7299C119.149 9.7299 120.232 10.4784 120.405 11.8165H115.424C115.749 10.365 116.767 9.7299 117.958 9.7299Z" fill="#0062E3"/>
</g>
<defs>
<clipPath id="clip0_614_3079">
<rect width="130" height="22" fill="white"/>
</clipPath>
</defs>
</svg>
