<svg width="170" height="44" viewBox="0 0 170 44" fill="none" xmlns="http://www.w3.org/2000/svg">
<path d="M34.3453 29.8474C34.6485 29.8474 34.93 29.7794 35.2116 29.5979L38.3304 27.7155C38.9585 27.3526 39.6948 27.1711 40.4096 27.2619C44.1997 27.7155 46.8637 28.4639 47.6434 28.7134C47.795 28.7588 47.9899 28.6907 48.0766 28.5546C48.2065 28.3959 48.3581 28.1237 48.4881 27.7381C48.5964 27.3753 48.618 27.0577 48.5964 26.8309C48.5747 26.6495 48.4664 26.4907 48.2931 26.4454C47.0586 26.0825 41.6224 24.5402 34.302 24.5402C26.9815 24.5402 21.5453 26.0825 20.3108 26.4454C20.1375 26.4907 20.0292 26.6495 20.0075 26.8309C19.9859 27.035 20.0075 27.3526 20.1158 27.7381C20.2241 28.1237 20.3974 28.3959 20.5273 28.5546C20.6356 28.6907 20.8089 28.7588 20.9605 28.7134C21.7402 28.4639 24.4258 27.7155 28.1943 27.2619C28.9307 27.1711 29.6454 27.3299 30.2735 27.7155L33.4789 29.5979C33.7388 29.7794 34.0421 29.8474 34.3453 29.8474ZM29.1256 19.233C29.2989 19.5505 29.5588 19.7546 29.8837 19.8454C30.2086 19.9361 30.5334 19.8907 30.8366 19.7093C31.1399 19.5278 31.3348 19.2557 31.4214 18.9155C31.508 18.5753 31.4647 18.2351 31.2915 17.9175L28.4759 12.8144C28.3893 12.6557 28.1943 12.5876 28.0427 12.6103C27.8045 12.633 27.5013 12.7464 27.1331 12.9732C26.7649 13.2 26.505 13.4268 26.3751 13.6082C26.2668 13.767 26.2451 13.9485 26.3317 14.1072C26.3101 14.1526 29.1256 19.233 29.1256 19.233ZM26.5483 22.8845C26.8515 23.066 27.1981 23.0887 27.5013 23.0206C27.8262 22.9299 28.0861 22.7258 28.2593 22.4082C28.4326 22.0907 28.4542 21.7278 28.3893 21.4103C28.3243 21.0928 28.1077 20.7979 27.8045 20.6165L22.9314 17.668C22.7798 17.5773 22.5849 17.6 22.4549 17.7134C22.26 17.8495 22.0651 18.1217 21.8485 18.5072C21.6319 18.8928 21.5236 19.233 21.502 19.4598C21.4803 19.6639 21.5669 19.8227 21.6969 19.9134L26.5483 22.8845ZM35.5798 17.4412C35.5798 17.8041 35.4282 18.1216 35.2333 18.3711C34.995 18.6206 34.7135 18.734 34.3453 18.734C33.9987 18.734 33.6955 18.5753 33.4573 18.3711C33.219 18.1216 33.1108 17.8268 33.1108 17.4412V11.567C33.1108 11.3629 33.219 11.2268 33.3923 11.1588C33.5872 11.0454 33.9121 11 34.3453 11C34.7784 11 35.1033 11.068 35.2982 11.1588C35.4498 11.2495 35.5798 11.3856 35.5798 11.567V17.4412ZM39.5432 19.233C39.37 19.5505 39.1101 19.7546 38.7852 19.8454C38.4603 19.9361 38.1355 19.8907 37.8322 19.7093C37.529 19.5278 37.3341 19.2557 37.2475 18.9155C37.1608 18.5753 37.2041 18.2351 37.3774 17.9175L40.193 12.8144C40.2796 12.6557 40.4745 12.5876 40.6261 12.6103C40.8644 12.633 41.1676 12.7464 41.5358 12.9732C41.904 13.2 42.1639 13.4268 42.2938 13.6082C42.4021 13.767 42.4238 13.9485 42.3371 14.1072L39.5432 19.233ZM42.1206 22.8845C41.8173 23.066 41.4708 23.0887 41.1676 23.0206C40.8427 22.9299 40.5828 22.7258 40.4096 22.4082C40.2363 22.0907 40.2146 21.7278 40.2796 21.4103C40.3662 21.0701 40.5612 20.7979 40.8644 20.6165L45.7375 17.668C45.8891 17.5773 46.084 17.6 46.214 17.7134C46.4089 17.8495 46.6038 18.1217 46.8204 18.5072C47.037 18.8928 47.1453 19.233 47.1669 19.4598C47.1886 19.6639 47.1019 19.8227 46.972 19.9134L42.1206 22.8845ZM73.1784 18.8474H75.5175C75.6041 18.8474 75.6691 18.9155 75.7124 18.9835L78.0298 25.2433L80.2823 18.9835C80.3039 18.8928 80.3906 18.8474 80.4772 18.8474H82.773C82.9246 18.8474 83.0329 19.0062 82.9679 19.1423L77.2501 32.8639C77.2285 32.932 77.1418 33 77.0552 33H75.0627C74.9111 33 74.8028 32.8412 74.8677 32.7052L76.817 27.8969L72.9835 19.1423C72.9185 19.0062 73.0268 18.8474 73.1784 18.8474ZM107.767 20.2309V19.0742C107.767 18.9608 107.875 18.8474 107.983 18.8474H110.062C110.171 18.8474 110.279 18.9608 110.279 19.0742V28.3959C110.279 28.5093 110.171 28.6227 110.062 28.6227H107.983C107.875 28.6227 107.767 28.5093 107.767 28.3959V27.1711C107.333 27.8969 106.359 28.8268 104.778 28.8268C101.746 28.8268 100.186 26.4 100.186 23.701C100.186 20.1629 102.525 18.666 104.713 18.666C106.142 18.6206 107.138 19.3464 107.767 20.2309ZM102.655 23.701C102.655 25.3794 103.651 26.6722 105.233 26.6722C106.814 26.6722 107.831 25.5608 107.831 23.8371C107.831 22.1134 106.835 20.7979 105.168 20.7979C103.586 20.7753 102.655 22.068 102.655 23.701ZM112.141 28.3732V19.0515C112.141 18.9381 112.25 18.8247 112.358 18.8247H114.437C114.546 18.8247 114.654 18.9381 114.654 19.0515V20.3217C115.13 19.4371 116.062 18.6206 117.621 18.6206C119.224 18.6206 121 19.4371 121 23.2247V28.3505C121 28.4639 120.891 28.5773 120.783 28.5773H118.704C118.596 28.5773 118.487 28.4639 118.487 28.3505V23.2701C118.487 22.3629 118.271 20.7979 116.733 20.7979C115.195 20.7979 114.654 22.2268 114.654 23.5423V28.3732C114.654 28.4866 114.546 28.6 114.437 28.6H112.358C112.228 28.6 112.141 28.5093 112.141 28.3732ZM122.754 28.3732V19.0515C122.754 18.9381 122.862 18.8247 122.971 18.8247H125.05C125.158 18.8247 125.266 18.9381 125.266 19.0515V20.3217C125.743 19.4371 126.674 18.6206 128.234 18.6206C129.836 18.6206 131.612 19.4371 131.612 23.2247V28.3505C131.612 28.4639 131.504 28.5773 131.396 28.5773H129.316C129.208 28.5773 129.1 28.4639 129.1 28.3505V23.2701C129.1 22.3629 128.883 20.7979 127.346 20.7979C125.808 20.7979 125.266 22.2268 125.266 23.5423V28.3732C125.266 28.4866 125.158 28.6 125.05 28.6H122.971C122.841 28.6 122.754 28.5093 122.754 28.3732ZM144.499 18.8474H146.513C146.621 18.8474 146.73 18.9608 146.73 19.0742V21.0021C147.119 19.0969 148.701 18.4392 149.848 18.7113C149.957 18.734 150 18.8247 150 18.9155V21.0474C150 21.1835 149.892 21.2969 149.74 21.2515C147.618 20.8206 146.773 22.0227 146.773 23.6783V28.3732C146.773 28.4866 146.665 28.6 146.556 28.6H144.477C144.369 28.6 144.261 28.4866 144.261 28.3732V19.0515C144.282 18.9381 144.391 18.8474 144.499 18.8474ZM59.4688 20.9567C58.819 20.7299 58.4725 20.5938 57.9744 20.4124C57.4546 20.2082 56.5449 19.6866 56.5449 18.8021C56.5449 17.9402 57.108 17.3732 58.2776 17.3732C59.3388 17.3732 59.9236 17.9175 60.3134 18.7794C60.3784 18.8928 60.5084 18.9381 60.6166 18.8928L62.306 17.8495C62.3926 17.7814 62.4359 17.668 62.3926 17.5546C61.8728 16.3753 60.6816 14.9464 58.2992 14.9464C55.6569 14.9464 54.0109 16.6021 54.0109 18.7567C54.0109 20.9113 55.3754 22.0227 57.2163 22.6804C57.8877 22.9299 58.1693 23.0206 58.7324 23.2247C59.8153 23.6103 60.3134 24.132 60.3134 24.8351C60.3134 25.5381 59.8803 26.3773 58.1909 26.3773C56.6532 26.3773 56.1117 25.5155 55.7869 24.7216C55.7436 24.6082 55.592 24.5402 55.4837 24.6082L53.7077 25.6742C53.6211 25.7423 53.5777 25.833 53.6211 25.9464C54.3141 27.7155 56.1767 28.7588 58.2776 28.7588C60.7466 28.7588 62.8258 27.4433 62.8258 24.7897C62.8258 22.1361 60.0969 21.1835 59.4688 20.9567ZM73.0918 26.0598C73.0268 25.9464 72.8968 25.901 72.7886 25.9918C71.9872 26.6041 71.0559 26.6268 70.3412 25.4701C69.7347 24.4948 69.02 23.2928 69.02 23.2928L72.1605 19.2103C72.2688 19.0515 72.1821 18.8474 72.0089 18.8474H69.5615C69.4965 18.8474 69.4315 18.8701 69.3882 18.9381L66.6809 22.8392V14.9918C66.6809 14.8784 66.5727 14.7649 66.4644 14.7649H64.3852C64.2769 14.7649 64.1686 14.8784 64.1686 14.9918V28.3959C64.1686 28.5093 64.2769 28.6227 64.3852 28.6227H66.4644C66.5727 28.6227 66.6809 28.5093 66.6809 28.3959V24.0412C66.6809 24.0412 68.0671 26.332 68.5869 27.1711C69.3016 28.3278 70.2979 28.8268 71.3808 28.8268C72.3987 28.8268 73.0701 28.532 73.8498 27.7381C73.9148 27.6701 73.9364 27.5567 73.8931 27.466L73.0918 26.0598ZM87.9709 22.9753C87.3212 22.7258 87.083 22.635 86.5848 22.4309C86.0867 22.2268 85.6319 21.9546 85.6319 21.5237C85.6319 21.0928 86 20.6392 86.7581 20.6392C87.4078 20.6392 87.8193 20.9113 88.0359 21.3876C88.1009 21.501 88.2308 21.5464 88.3175 21.4784L89.7686 20.5938C89.8769 20.5258 89.8985 20.3897 89.8335 20.299C89.4437 19.5732 88.6423 18.6433 86.7581 18.6433C84.4407 18.6433 83.2278 20.0495 83.2278 21.6144C83.2278 23.1794 84.4407 23.9052 85.5452 24.3588C86.8014 24.9031 86.888 24.9258 87.0396 24.9938C87.4295 25.1526 87.906 25.4021 87.906 25.8784C87.906 26.3546 87.3862 26.7629 86.6065 26.7629C85.8701 26.7629 85.0471 26.4454 84.7006 25.5608C84.6572 25.4474 84.5056 25.3794 84.3973 25.4474L82.9246 26.332C82.8379 26.4 82.7946 26.4907 82.8379 26.6041C83.2711 27.7608 84.5273 28.8041 86.5848 28.8041C88.8156 28.8041 90.2884 27.5567 90.2884 25.8103C90.3533 24.0639 89.2055 23.4515 87.9709 22.9753ZM96.331 20.9567C97.2623 20.9567 97.9554 21.2515 98.5835 21.7278C98.6917 21.7959 98.8217 21.7732 98.8867 21.6598L99.753 20.0948C99.818 19.9814 99.7747 19.868 99.688 19.8C98.8 19.1649 97.6955 18.5979 96.2227 18.5979C94.75 18.5979 93.3855 19.0062 92.4325 20.0495C91.4579 21.0701 91.0247 22.2722 91.0247 23.7237C91.0247 25.4474 91.7178 26.5588 92.4542 27.3526C93.1906 28.1237 94.5334 28.7814 96.2444 28.7814C97.7821 28.7814 98.93 28.101 99.7097 27.5794C99.7963 27.5113 99.818 27.3753 99.7747 27.2845L98.93 25.7423C98.865 25.6289 98.7351 25.5835 98.6268 25.6742C98.0637 26.0825 97.2623 26.4454 96.3743 26.4454C95.3564 26.4454 93.5154 25.8557 93.5154 23.701C93.4938 21.5691 95.3131 20.9567 96.331 20.9567ZM138.348 26.6495C137.525 26.6495 136.724 26.4454 136.16 25.9691C135.597 25.4928 135.316 24.9938 135.316 24.4041H142.723C142.831 24.4041 142.939 24.2907 142.939 24.1773C142.896 21.8639 142.181 20.7979 141.488 20.0722C140.774 19.3237 139.561 18.6433 137.958 18.6433C136.355 18.6433 135.121 19.2557 134.298 20.1175C133.475 20.9794 132.847 22.0907 132.847 23.7691C132.847 25.4474 133.496 26.5588 134.276 27.3753C135.056 28.1918 136.355 28.8041 138.196 28.8041C139.929 28.8041 141.402 28.1691 142.463 26.899C142.55 26.7856 142.528 26.6268 142.398 26.5588L140.925 25.6515C140.86 25.6062 140.752 25.6062 140.687 25.6742C139.951 26.4 139.019 26.6495 138.348 26.6495ZM137.958 20.7299C139.149 20.7299 140.232 21.4784 140.405 22.8165H135.424C135.749 21.365 136.767 20.7299 137.958 20.7299Z" fill="#0770E3"/>
</svg>
