<svg width="189" height="32" viewBox="0 0 189 32" fill="none" xmlns="http://www.w3.org/2000/svg">
<g clip-path="url(#clip0_559_15550)">
<path d="M20.3199 27.4144C20.761 27.4144 21.1705 27.3155 21.5801 27.0515L26.1165 24.3134C27.03 23.7856 28.1011 23.5217 29.1407 23.6536C34.6537 24.3134 38.5286 25.4021 39.6627 25.7649C39.8832 25.8309 40.1667 25.732 40.2927 25.534C40.4817 25.3031 40.7023 24.9072 40.8913 24.3464C41.0488 23.8186 41.0803 23.3567 41.0488 23.0268C41.0173 22.7629 40.8598 22.532 40.6078 22.466C38.8121 21.9381 30.9049 19.6948 20.2569 19.6948C9.60899 19.6948 1.70178 21.9381 -0.0938807 22.466C-0.345903 22.532 -0.503418 22.7629 -0.534921 23.0268C-0.566423 23.3237 -0.534921 23.7856 -0.377407 24.3464C-0.219893 24.9072 0.0321306 25.3031 0.221147 25.534C0.378662 25.732 0.630684 25.8309 0.851204 25.7649C1.98531 25.4021 5.89165 24.3134 11.3731 23.6536C12.4442 23.5217 13.4838 23.7526 14.3974 24.3134L19.0598 27.0515C19.4379 27.3155 19.8789 27.4144 20.3199 27.4144ZM12.7278 11.9753C12.9798 12.4371 13.3578 12.734 13.8304 12.866C14.3029 12.9979 14.7755 12.932 15.2165 12.668C15.6575 12.4041 15.9411 12.0082 16.0671 11.5134C16.1931 11.0186 16.1301 10.5237 15.878 10.0619L11.7827 2.63918C11.6567 2.40825 11.3731 2.30928 11.1526 2.34227C10.8061 2.37526 10.3651 2.54021 9.82951 2.87011C9.29396 3.2 8.91593 3.5299 8.72691 3.79381C8.5694 4.02474 8.53789 4.28866 8.6639 4.51959C8.6324 4.58557 12.7278 11.9753 12.7278 11.9753ZM8.97893 17.2866C9.41997 17.5505 9.92402 17.5835 10.3651 17.4845C10.8376 17.3526 11.2156 17.0557 11.4677 16.5938C11.7197 16.132 11.7512 15.6041 11.6567 15.1423C11.5622 14.6804 11.2471 14.2515 10.8061 13.9876L3.71796 9.69897C3.49744 9.56701 3.21391 9.6 3.0249 9.76495C2.74137 9.96289 2.45785 10.3588 2.14282 10.9196C1.82779 11.4804 1.67028 11.9753 1.63877 12.3052C1.60727 12.6021 1.73328 12.833 1.9223 12.9649L8.97893 17.2866ZM22.1156 9.36907C22.1156 9.8969 21.8951 10.3588 21.6116 10.7216C21.265 11.0845 20.8555 11.2495 20.3199 11.2495C19.8159 11.2495 19.3749 11.0186 19.0283 10.7216C18.6818 10.3588 18.5243 9.92989 18.5243 9.36907V0.824742C18.5243 0.527835 18.6818 0.329901 18.9338 0.230932C19.2173 0.0659834 19.6899 0 20.3199 0C20.95 0 21.4225 0.0989731 21.7061 0.230932C21.9266 0.362891 22.1156 0.560825 22.1156 0.824742V9.36907ZM27.8806 11.9753C27.6286 12.4371 27.2506 12.734 26.778 12.866C26.3055 12.9979 25.8329 12.932 25.3919 12.668C24.9509 12.4041 24.6673 12.0082 24.5413 11.5134C24.4153 11.0186 24.4783 10.5237 24.7303 10.0619L28.8257 2.63918C28.9517 2.40825 29.2352 2.30928 29.4558 2.34227C29.8023 2.37526 30.2433 2.54021 30.7789 2.87011C31.3144 3.2 31.6925 3.5299 31.8815 3.79381C32.039 4.02474 32.0705 4.28866 31.9445 4.51959L27.8806 11.9753ZM31.6295 17.2866C31.1884 17.5505 30.6844 17.5835 30.2433 17.4845C29.7708 17.3526 29.3928 17.0557 29.1407 16.5938C28.8887 16.132 28.8572 15.6041 28.9517 15.1423C29.0777 14.6474 29.3613 14.2515 29.8023 13.9876L36.8904 9.69897C37.111 9.56701 37.3945 9.6 37.5835 9.76495C37.867 9.96289 38.1505 10.3588 38.4656 10.9196C38.7806 11.4804 38.9381 11.9753 38.9696 12.3052C39.0011 12.6021 38.8751 12.833 38.6861 12.9649L31.6295 17.2866ZM76.8045 11.4144H80.2068C80.3328 11.4144 80.4273 11.5134 80.4903 11.6124L83.8611 20.7175L87.1374 11.6124C87.1689 11.4804 87.2949 11.4144 87.4209 11.4144H90.7602C90.9808 11.4144 91.1383 11.6454 91.0438 11.8433L82.727 31.8021C82.6955 31.901 82.5695 32 82.4435 32H79.5452C79.3247 32 79.1672 31.7691 79.2617 31.5711L82.097 24.5773L76.521 11.8433C76.4265 11.6454 76.584 11.4144 76.8045 11.4144ZM127.114 13.4268V11.7443C127.114 11.5794 127.272 11.4144 127.43 11.4144H130.454C130.611 11.4144 130.769 11.5794 130.769 11.7443V25.3031C130.769 25.468 130.611 25.633 130.454 25.633H127.43C127.272 25.633 127.114 25.468 127.114 25.3031V23.5216C126.484 24.5773 125.067 25.9299 122.767 25.9299C118.357 25.9299 116.089 22.4 116.089 18.4742C116.089 13.3278 119.491 11.1505 122.673 11.1505C124.752 11.0845 126.201 12.1402 127.114 13.4268ZM119.68 18.4742C119.68 20.9155 121.129 22.7959 123.429 22.7959C125.728 22.7959 127.209 21.1794 127.209 18.6722C127.209 16.1649 125.76 14.2515 123.334 14.2515C121.034 14.2186 119.68 16.099 119.68 18.4742ZM133.478 25.2701V11.7113C133.478 11.5464 133.636 11.3814 133.793 11.3814H136.817C136.975 11.3814 137.132 11.5464 137.132 11.7113V13.5588C137.825 12.2722 139.18 11.0845 141.448 11.0845C143.779 11.0845 146.363 12.2722 146.363 17.7814V25.2371C146.363 25.4021 146.205 25.567 146.048 25.567H143.023C142.866 25.567 142.708 25.4021 142.708 25.2371V17.8474C142.708 16.5278 142.393 14.2515 140.157 14.2515C137.92 14.2515 137.132 16.3299 137.132 18.2433V25.2701C137.132 25.4351 136.975 25.6 136.817 25.6H133.793C133.604 25.6 133.478 25.468 133.478 25.2701ZM148.914 25.2701V11.7113C148.914 11.5464 149.072 11.3814 149.229 11.3814H152.254C152.411 11.3814 152.569 11.5464 152.569 11.7113V13.5588C153.262 12.2722 154.616 11.0845 156.885 11.0845C159.216 11.0845 161.799 12.2722 161.799 17.7814V25.2371C161.799 25.4021 161.642 25.567 161.484 25.567H158.46C158.302 25.567 158.145 25.4021 158.145 25.2371V17.8474C158.145 16.5278 157.83 14.2515 155.593 14.2515C153.356 14.2515 152.569 16.3299 152.569 18.2433V25.2701C152.569 25.4351 152.411 25.6 152.254 25.6H149.229C149.04 25.6 148.914 25.468 148.914 25.2701ZM180.543 11.4144H183.473C183.631 11.4144 183.788 11.5794 183.788 11.7443V14.5485C184.355 11.7773 186.655 10.8206 188.324 11.2165C188.482 11.2495 188.545 11.3814 188.545 11.5134V14.6144C188.545 14.8124 188.387 14.9773 188.167 14.9113C185.08 14.2845 183.851 16.033 183.851 18.4412V25.2701C183.851 25.4351 183.694 25.6 183.536 25.6H180.512C180.354 25.6 180.197 25.4351 180.197 25.2701V11.7113C180.228 11.5464 180.386 11.4144 180.543 11.4144ZM56.8632 14.4825C55.9181 14.1526 55.4141 13.9546 54.6895 13.6907C53.9335 13.3938 52.6103 12.635 52.6103 11.3485C52.6103 10.0948 53.4294 9.2701 55.1306 9.2701C56.6742 9.2701 57.5248 10.0619 58.0918 11.3155C58.1863 11.4804 58.3754 11.5464 58.5329 11.4804L60.9901 9.96289C61.1161 9.86392 61.1791 9.69897 61.1161 9.53402C60.36 7.81855 58.6274 5.7402 55.1621 5.7402C51.3187 5.7402 48.9245 8.14846 48.9245 11.2825C48.9245 14.4165 50.9092 16.033 53.5869 16.9897C54.5635 17.3526 54.973 17.4845 55.7921 17.7814C57.3673 18.3423 58.0918 19.101 58.0918 20.1237C58.0918 21.1464 57.4618 22.367 55.0046 22.367C52.7679 22.367 51.9803 21.1134 51.5077 19.9588C51.4447 19.7938 51.2242 19.6948 51.0667 19.7938L48.4835 21.3443C48.3575 21.4433 48.2944 21.5753 48.3575 21.7402C49.3655 24.3134 52.0748 25.8309 55.1306 25.8309C58.7219 25.8309 61.7462 23.9175 61.7462 20.0577C61.7462 16.1979 57.7768 14.8124 56.8632 14.4825ZM76.6785 21.9052C76.584 21.7402 76.395 21.6742 76.2374 21.8062C75.0718 22.6969 73.7172 22.7299 72.6776 21.0474C71.7955 19.6289 70.756 17.8804 70.756 17.8804L75.3239 11.9423C75.4814 11.7113 75.3554 11.4144 75.1033 11.4144H71.5435C71.449 11.4144 71.3545 11.4474 71.2915 11.5464L67.3537 17.2206V5.80619C67.3537 5.64124 67.1961 5.47629 67.0386 5.47629H64.0144C63.8568 5.47629 63.6993 5.64124 63.6993 5.80619V25.3031C63.6993 25.468 63.8568 25.633 64.0144 25.633H67.0386C67.1961 25.633 67.3537 25.468 67.3537 25.3031V18.9691C67.3537 18.9691 69.3698 22.301 70.1259 23.5216C71.1655 25.2041 72.6146 25.9299 74.1898 25.9299C75.6704 25.9299 76.647 25.501 77.7811 24.3464C77.8756 24.2474 77.9071 24.0825 77.8441 23.9505L76.6785 21.9052ZM98.3209 17.4186C97.3758 17.0557 97.0293 16.9237 96.3047 16.6268C95.5802 16.3299 94.9186 15.934 94.9186 15.3072C94.9186 14.6804 95.4542 14.0206 96.5568 14.0206C97.5018 14.0206 98.1004 14.4165 98.4154 15.1093C98.5099 15.2742 98.699 15.3402 98.825 15.2412L100.936 13.9546C101.093 13.8557 101.125 13.6577 101.03 13.5258C100.463 12.4701 99.2975 11.1175 96.5568 11.1175C93.186 11.1175 91.4218 13.1629 91.4218 15.4392C91.4218 17.7155 93.186 18.7711 94.7926 19.4309C96.6198 20.2227 96.7458 20.2557 96.9663 20.3546C97.5333 20.5856 98.2264 20.9485 98.2264 21.6412C98.2264 22.334 97.4703 22.9278 96.3362 22.9278C95.2651 22.9278 94.068 22.466 93.564 21.1794C93.501 21.0144 93.2805 20.9155 93.123 21.0144L90.9808 22.301C90.8548 22.4 90.7917 22.532 90.8548 22.6969C91.4848 24.3794 93.312 25.8969 96.3047 25.8969C99.5495 25.8969 101.692 24.0825 101.692 21.5423C101.786 19.0021 100.117 18.1113 98.3209 17.4186ZM110.481 14.4825C111.836 14.4825 112.844 14.9113 113.757 15.6041C113.915 15.7031 114.104 15.6701 114.198 15.5052L115.458 13.2289C115.553 13.0639 115.49 12.899 115.364 12.8C114.072 11.8763 112.466 11.0515 110.324 11.0515C108.181 11.0515 106.197 11.6454 104.811 13.1629C103.393 14.6474 102.763 16.3959 102.763 18.5072C102.763 21.0144 103.771 22.6309 104.842 23.7856C105.913 24.9072 107.866 25.8639 110.355 25.8639C112.592 25.8639 114.261 24.8742 115.395 24.1155C115.521 24.0165 115.553 23.8186 115.49 23.6866L114.261 21.4433C114.167 21.2783 113.978 21.2124 113.82 21.3443C113.001 21.9381 111.836 22.466 110.544 22.466C109.063 22.466 106.386 21.6082 106.386 18.4742C106.354 15.3732 109 14.4825 110.481 14.4825ZM171.596 22.7629C170.399 22.7629 169.234 22.466 168.415 21.7732C167.596 21.0804 167.186 20.3546 167.186 19.4969H177.96C178.118 19.4969 178.275 19.332 178.275 19.167C178.212 15.8021 177.172 14.2515 176.164 13.1959C175.125 12.1072 173.361 11.1175 171.029 11.1175C168.698 11.1175 166.903 12.0083 165.705 13.2619C164.508 14.5155 163.595 16.132 163.595 18.5732C163.595 21.0144 164.54 22.6309 165.674 23.8186C166.808 25.0062 168.698 25.8969 171.376 25.8969C173.896 25.8969 176.038 24.9732 177.582 23.1258C177.708 22.9608 177.677 22.7299 177.488 22.6309L175.345 21.3113C175.251 21.2454 175.093 21.2454 174.999 21.3443C173.928 22.4 172.573 22.7629 171.596 22.7629ZM171.029 14.1526C172.762 14.1526 174.337 15.2412 174.589 17.1876H167.344C167.816 15.0763 169.297 14.1526 171.029 14.1526Z" fill="white"/>
</g>
<defs>
<clipPath id="clip0_559_15550">
<rect width="189" height="32" fill="white"/>
</clipPath>
</defs>
</svg>
