<svg width="100" height="26" viewBox="0 0 100 26" fill="none" xmlns="http://www.w3.org/2000/svg">
<path d="M20.203 17.5574C20.3814 17.5574 20.547 17.5174 20.7126 17.4107L22.5472 16.3033C22.9167 16.0899 23.3498 15.9831 23.7703 16.0365C25.9998 16.3033 27.5668 16.7436 28.0255 16.8903C28.1147 16.917 28.2293 16.877 28.2803 16.797C28.3567 16.7036 28.4459 16.5435 28.5223 16.3167C28.586 16.1032 28.5988 15.9164 28.586 15.783C28.5733 15.6763 28.5096 15.5829 28.4077 15.5562C27.6815 15.3427 24.4837 14.4355 20.1776 14.4355C15.8714 14.4355 12.6736 15.3427 11.9474 15.5562C11.8455 15.5829 11.7818 15.6763 11.7691 15.783C11.7563 15.9031 11.7691 16.0899 11.8328 16.3167C11.8965 16.5435 11.9984 16.7036 12.0749 16.797C12.1386 16.877 12.2405 16.917 12.3297 16.8903C12.7883 16.7436 14.3681 16.3033 16.5848 16.0365C17.018 15.9831 17.4384 16.0765 17.8079 16.3033L19.6934 17.4107C19.8463 17.5174 20.0247 17.5574 20.203 17.5574ZM17.1327 11.3136C17.2346 11.5004 17.3875 11.6205 17.5786 11.6739C17.7697 11.7272 17.9608 11.7005 18.1391 11.5938C18.3175 11.4871 18.4322 11.327 18.4831 11.1269C18.5341 10.9267 18.5086 10.7266 18.4067 10.5398L16.7505 7.53802C16.6995 7.44463 16.5849 7.4046 16.4957 7.41794C16.3555 7.43129 16.1772 7.49799 15.9606 7.63141C15.744 7.76482 15.5911 7.89823 15.5147 8.00497C15.451 8.09836 15.4382 8.20509 15.4892 8.29848C15.4765 8.32516 17.1327 11.3136 17.1327 11.3136ZM15.6166 13.4616C15.795 13.5683 15.9988 13.5817 16.1772 13.5417C16.3683 13.4883 16.5211 13.3682 16.6231 13.1814C16.725 12.9947 16.7377 12.7812 16.6995 12.5944C16.6613 12.4076 16.5339 12.2342 16.3555 12.1275L13.489 10.3931C13.3998 10.3397 13.2852 10.3531 13.2087 10.4198C13.0941 10.4998 12.9794 10.6599 12.852 10.8867C12.7246 11.1135 12.6609 11.3136 12.6482 11.447C12.6354 11.5671 12.6864 11.6605 12.7628 11.7139L15.6166 13.4616ZM20.9292 10.2597C20.9292 10.4731 20.84 10.6599 20.7254 10.8067C20.5852 10.9534 20.4196 11.0201 20.203 11.0201C19.9992 11.0201 19.8208 10.9267 19.6807 10.8067C19.5406 10.6599 19.4769 10.4865 19.4769 10.2597V6.80424C19.4769 6.68417 19.5406 6.60412 19.6425 6.56409C19.7571 6.49739 19.9482 6.4707 20.203 6.4707C20.4578 6.4707 20.6489 6.51073 20.7636 6.56409C20.8528 6.61746 20.9292 6.69751 20.9292 6.80424V10.2597ZM23.2607 11.3136C23.1587 11.5004 23.0059 11.6205 22.8148 11.6739C22.6237 11.7272 22.4326 11.7005 22.2542 11.5938C22.0758 11.4871 21.9612 11.327 21.9102 11.1269C21.8593 10.9267 21.8847 10.7266 21.9867 10.5398L23.6429 7.53802C23.6938 7.44463 23.8085 7.4046 23.8977 7.41794C24.0378 7.43129 24.2162 7.49799 24.4328 7.63141C24.6493 7.76482 24.8022 7.89823 24.8787 8.00497C24.9424 8.09836 24.9551 8.20509 24.9041 8.29848L23.2607 11.3136ZM24.7767 13.4616C24.5984 13.5683 24.3945 13.5817 24.2162 13.5417C24.0251 13.4883 23.8722 13.3682 23.7703 13.1814C23.6684 12.9947 23.6556 12.7812 23.6938 12.5944C23.7448 12.3943 23.8595 12.2342 24.0378 12.1275L26.9043 10.3931C26.9935 10.3397 27.1082 10.3531 27.1846 10.4198C27.2993 10.4998 27.4139 10.6599 27.5413 10.8867C27.6687 11.1135 27.7324 11.3136 27.7452 11.447C27.7579 11.5671 27.707 11.6605 27.6305 11.7139L24.7767 13.4616ZM43.0461 11.0868H44.422C44.473 11.0868 44.5112 11.1269 44.5367 11.1669L45.8998 14.8491L47.2248 11.1669C47.2376 11.1135 47.2885 11.0868 47.3395 11.0868H48.6899C48.7791 11.0868 48.8428 11.1802 48.8046 11.2603L45.4412 19.3318C45.4285 19.3718 45.3775 19.4119 45.3265 19.4119H44.1544C44.0653 19.4119 44.0016 19.3185 44.0398 19.2384L45.1864 16.4101L42.9314 11.2603C42.8932 11.1802 42.9569 11.0868 43.0461 11.0868ZM63.392 11.9007V11.2202C63.392 11.1535 63.4557 11.0868 63.5194 11.0868H64.7425C64.8062 11.0868 64.8699 11.1535 64.8699 11.2202V16.7036C64.8699 16.7703 64.8062 16.837 64.7425 16.837H63.5194C63.4557 16.837 63.392 16.7703 63.392 16.7036V15.9831C63.1372 16.4101 62.5639 16.9571 61.6339 16.9571C59.8503 16.9571 58.933 15.5295 58.933 13.9419C58.933 11.8606 60.3089 10.9801 61.5957 10.9801C62.4365 10.9534 63.0226 11.3803 63.392 11.9007ZM60.3853 13.9419C60.3853 14.9292 60.9714 15.6896 61.9014 15.6896C62.8315 15.6896 63.4302 15.0359 63.4302 14.0219C63.4302 13.008 62.8442 12.2342 61.8632 12.2342C60.9332 12.2209 60.3853 12.9813 60.3853 13.9419ZM65.9655 16.6902V11.2069C65.9655 11.1402 66.0292 11.0735 66.0929 11.0735H67.316C67.3797 11.0735 67.4434 11.1402 67.4434 11.2069V11.954C67.7237 11.4337 68.2715 10.9534 69.1888 10.9534C70.1315 10.9534 71.1762 11.4337 71.1762 13.6617V16.6769C71.1762 16.7436 71.1125 16.8103 71.0488 16.8103H69.8258C69.7621 16.8103 69.6984 16.7436 69.6984 16.6769V13.6884C69.6984 13.1548 69.571 12.2342 68.6664 12.2342C67.7619 12.2342 67.4434 13.0747 67.4434 13.8485V16.6902C67.4434 16.7569 67.3797 16.8236 67.316 16.8236H66.0929C66.0165 16.8236 65.9655 16.7703 65.9655 16.6902ZM72.2082 16.6902V11.2069C72.2082 11.1402 72.2719 11.0735 72.3356 11.0735H73.5586C73.6223 11.0735 73.686 11.1402 73.686 11.2069V11.954C73.9663 11.4337 74.5141 10.9534 75.4314 10.9534C76.3742 10.9534 77.4189 11.4337 77.4189 13.6617V16.6769C77.4189 16.7436 77.3552 16.8103 77.2915 16.8103H76.0684C76.0047 16.8103 75.941 16.7436 75.941 16.6769V13.6884C75.941 13.1548 75.8136 12.2342 74.9091 12.2342C74.0045 12.2342 73.686 13.0747 73.686 13.8485V16.6902C73.686 16.7569 73.6223 16.8236 73.5586 16.8236H72.3356C72.2591 16.8236 72.2082 16.7703 72.2082 16.6902ZM84.9992 11.0868H86.1841C86.2478 11.0868 86.3115 11.1535 86.3115 11.2202V12.3543C86.5408 11.2336 87.4708 10.8467 88.1461 11.0068C88.2098 11.0201 88.2352 11.0735 88.2352 11.1269V12.3809C88.2352 12.461 88.1715 12.5277 88.0824 12.501C86.8338 12.2475 86.337 12.9546 86.337 13.9286V16.6902C86.337 16.7569 86.2733 16.8236 86.2096 16.8236H84.9865C84.9228 16.8236 84.8591 16.7569 84.8591 16.6902V11.2069C84.8718 11.1402 84.9355 11.0868 84.9992 11.0868ZM34.9816 12.3276C34.5994 12.1942 34.3955 12.1141 34.1025 12.0074C33.7967 11.8873 33.2617 11.5805 33.2617 11.0601C33.2617 10.5532 33.5929 10.2196 34.2809 10.2196C34.9051 10.2196 35.2491 10.5398 35.4784 11.0468C35.5167 11.1135 35.5931 11.1402 35.6568 11.1135L36.6505 10.4998C36.7015 10.4598 36.727 10.3931 36.7015 10.3264C36.3957 9.63262 35.695 8.79211 34.2936 8.79211C32.7393 8.79211 31.7711 9.76603 31.7711 11.0335C31.7711 12.3009 32.5737 12.9546 33.6566 13.3415C34.0515 13.4883 34.2172 13.5417 34.5484 13.6617C35.1854 13.8885 35.4784 14.1954 35.4784 14.609C35.4784 15.0225 35.2236 15.5162 34.2299 15.5162C33.3254 15.5162 33.0069 15.0092 32.8158 14.5423C32.7903 14.4756 32.7011 14.4355 32.6374 14.4756L31.5927 15.1026C31.5417 15.1426 31.5163 15.196 31.5417 15.2627C31.9494 16.3033 33.0451 16.917 34.2809 16.917C35.7332 16.917 36.9563 16.1432 36.9563 14.5823C36.9563 13.0213 35.351 12.461 34.9816 12.3276ZM42.9951 15.3294C42.9569 15.2627 42.8804 15.236 42.8167 15.2894C42.3454 15.6496 41.7975 15.6629 41.3771 14.9825C41.0204 14.4088 40.6 13.7017 40.6 13.7017L42.4473 11.3003C42.511 11.2069 42.46 11.0868 42.3581 11.0868H40.9185C40.8802 11.0868 40.842 11.1002 40.8165 11.1402L39.224 13.4349V8.81879C39.224 8.75209 39.1603 8.68538 39.0966 8.68538H37.8736C37.8099 8.68538 37.7462 8.75209 37.7462 8.81879V16.7036C37.7462 16.7703 37.8099 16.837 37.8736 16.837H39.0966C39.1603 16.837 39.224 16.7703 39.224 16.7036V14.142C39.224 14.142 40.0394 15.4895 40.3452 15.9831C40.7656 16.6635 41.3516 16.9571 41.9886 16.9571C42.5874 16.9571 42.9824 16.7836 43.441 16.3167C43.4792 16.2766 43.492 16.2099 43.4665 16.1566L42.9951 15.3294ZM51.7476 13.515C51.3654 13.3682 51.2252 13.3148 50.9322 13.1948C50.6392 13.0747 50.3716 12.9146 50.3716 12.6611C50.3716 12.4076 50.5882 12.1408 51.0341 12.1408C51.4163 12.1408 51.6584 12.3009 51.7858 12.5811C51.824 12.6478 51.9004 12.6745 51.9514 12.6344L52.805 12.1141C52.8687 12.0741 52.8814 11.994 52.8432 11.9407C52.6139 11.5138 52.1425 10.9668 51.0341 10.9668C49.6709 10.9668 48.9575 11.7939 48.9575 12.7145C48.9575 13.635 49.6709 14.062 50.3207 14.3288C51.0596 14.649 51.1105 14.6623 51.1997 14.7024C51.4291 14.7957 51.7093 14.9425 51.7093 15.2227C51.7093 15.5028 51.4036 15.743 50.9449 15.743C50.5118 15.743 50.0276 15.5562 49.8238 15.0359C49.7983 14.9692 49.7091 14.9292 49.6454 14.9692L48.7791 15.4895C48.7281 15.5295 48.7027 15.5829 48.7281 15.6496C48.983 16.33 49.7219 16.9437 50.9322 16.9437C52.2444 16.9437 53.1107 16.2099 53.1107 15.1826C53.149 14.1554 52.4737 13.7951 51.7476 13.515ZM56.6652 12.3276C57.2131 12.3276 57.6207 12.501 57.9902 12.7812C58.0539 12.8212 58.1304 12.8079 58.1686 12.7412L58.6782 11.8206C58.7164 11.7539 58.6909 11.6872 58.64 11.6472C58.1176 11.2736 57.4679 10.9401 56.6015 10.9401C55.7352 10.9401 54.9326 11.1802 54.372 11.7939C53.7987 12.3943 53.5439 13.1014 53.5439 13.9552C53.5439 14.9692 53.9516 15.6229 54.3848 16.0899C54.8179 16.5435 55.6078 16.9304 56.6143 16.9304C57.5188 16.9304 58.194 16.5301 58.6527 16.2233C58.7037 16.1833 58.7164 16.1032 58.6909 16.0498L58.1941 15.1426C58.1558 15.0759 58.0794 15.0492 58.0157 15.1026C57.6844 15.3427 57.2131 15.5562 56.6907 15.5562C56.0919 15.5562 55.009 15.2093 55.009 13.9419C54.9963 12.6878 56.0665 12.3276 56.6652 12.3276ZM81.3811 15.6763C80.8969 15.6763 80.4255 15.5562 80.0943 15.276C79.7631 14.9959 79.5974 14.7024 79.5974 14.3555H83.9546C84.0183 14.3555 84.082 14.2888 84.082 14.2221C84.0565 12.8612 83.6361 12.2342 83.2284 11.8073C82.808 11.367 82.0945 10.9668 81.1517 10.9668C80.209 10.9668 79.4828 11.327 78.9987 11.834C78.5145 12.3409 78.1451 12.9947 78.1451 13.9819C78.1451 14.9692 78.5273 15.6229 78.9859 16.1032C79.4446 16.5835 80.209 16.9437 81.2919 16.9437C82.3111 16.9437 83.1774 16.5702 83.8017 15.823C83.8526 15.7563 83.8399 15.6629 83.7635 15.6229L82.8971 15.0893C82.8589 15.0626 82.7952 15.0626 82.757 15.1026C82.3238 15.5295 81.776 15.6763 81.3811 15.6763ZM81.1517 12.1942C81.8524 12.1942 82.4894 12.6344 82.5914 13.4216H79.6611C79.8522 12.5677 80.451 12.1942 81.1517 12.1942Z" fill="#0770E3"/>
</svg>
