<svg width="32" height="32" viewBox="0 0 32 32" fill="none" xmlns="http://www.w3.org/2000/svg">
<path d="M16.4949 26C22.2499 26 27 21.2476 27 15.5C27 9.75242 22.2397 5 16.4848 5C10.74 5 6 9.75242 6 15.5C6 21.2476 10.7501 26 16.4949 26ZM16.4848 17.1552C14.4954 17.1451 12.9526 15.4797 12.9526 13.2761C12.9323 11.2045 14.5056 9.47824 16.4848 9.47824C18.464 9.47824 20.0169 11.2045 20.0169 13.2761C20.0169 15.4797 18.4741 17.1755 16.4848 17.1552ZM16.4848 24.2635C14.2112 24.2635 11.7956 23.3191 10.2629 21.6741C11.4302 19.9275 13.7443 18.912 16.4848 18.912C19.1948 18.912 21.5292 19.9072 22.7066 21.6741C21.174 23.3191 18.7583 24.2635 16.4848 24.2635Z" fill="white"/>
</svg>
