<svg width="109" height="21" viewBox="0 0 109 21" fill="none" xmlns="http://www.w3.org/2000/svg">
<path d="M6.37539 4.6453C6.64503 4.15087 7.35497 4.15087 7.62461 4.6453L9.01898 7.20205C9.12131 7.38968 9.30257 7.52137 9.51264 7.56071L12.3751 8.09676C12.9287 8.20042 13.1481 8.87561 12.7612 9.28483L10.7604 11.401C10.6136 11.5563 10.5444 11.7694 10.5719 11.9814L10.9466 14.8694C11.0191 15.4279 10.4447 15.8452 9.93599 15.6037L7.30509 14.3548C7.11202 14.2632 6.88798 14.2632 6.69491 14.3548L4.06401 15.6037C3.55525 15.8452 2.9809 15.4279 3.05337 14.8694L3.42812 11.9814C3.45562 11.7694 3.38639 11.5563 3.23956 11.401L1.23883 9.28483C0.851931 8.8756 1.07131 8.20042 1.62486 8.09676L4.48736 7.56071C4.69743 7.52137 4.87869 7.38968 4.98102 7.20205L6.37539 4.6453Z" fill="#F55D42"/>
<path d="M20.3754 4.6453C20.645 4.15087 21.355 4.15087 21.6246 4.6453L23.019 7.20205C23.1213 7.38968 23.3026 7.52137 23.5126 7.56071L26.3751 8.09676C26.9287 8.20042 27.1481 8.87561 26.7612 9.28483L24.7604 11.401C24.6136 11.5563 24.5444 11.7694 24.5719 11.9814L24.9466 14.8694C25.0191 15.4279 24.4447 15.8452 23.936 15.6037L21.3051 14.3548C21.112 14.2632 20.888 14.2632 20.6949 14.3548L18.064 15.6037C17.5553 15.8452 16.9809 15.4279 17.0534 14.8694L17.4281 11.9814C17.4556 11.7694 17.3864 11.5563 17.2396 11.401L15.2388 9.28483C14.8519 8.8756 15.0713 8.20042 15.6249 8.09676L18.4874 7.56071C18.6974 7.52137 18.8787 7.38968 18.981 7.20205L20.3754 4.6453Z" fill="#F55D42"/>
<path d="M34.3754 4.6453C34.645 4.15087 35.355 4.15087 35.6246 4.6453L37.019 7.20205C37.1213 7.38968 37.3026 7.52137 37.5126 7.56071L40.3751 8.09676C40.9287 8.20042 41.1481 8.87561 40.7612 9.28483L38.7604 11.401C38.6136 11.5563 38.5444 11.7694 38.5719 11.9814L38.9466 14.8694C39.0191 15.4279 38.4447 15.8452 37.936 15.6037L35.3051 14.3548C35.112 14.2632 34.888 14.2632 34.6949 14.3548L32.064 15.6037C31.5553 15.8452 30.9809 15.4279 31.0534 14.8694L31.4281 11.9814C31.4556 11.7694 31.3864 11.5563 31.2396 11.401L29.2388 9.28483C28.8519 8.8756 29.0713 8.20042 29.6249 8.09676L32.4874 7.56071C32.6974 7.52137 32.8787 7.38968 32.981 7.20205L34.3754 4.6453Z" fill="#F55D42"/>
<path d="M48.3754 4.6453C48.645 4.15087 49.355 4.15087 49.6246 4.6453L51.019 7.20205C51.1213 7.38968 51.3026 7.52137 51.5126 7.56071L54.3751 8.09676C54.9287 8.20042 55.1481 8.87561 54.7612 9.28483L52.7604 11.401C52.6136 11.5563 52.5444 11.7694 52.5719 11.9814L52.9466 14.8694C53.0191 15.4279 52.4447 15.8452 51.936 15.6037L49.3051 14.3548C49.112 14.2632 48.888 14.2632 48.6949 14.3548L46.064 15.6037C45.5553 15.8452 44.9809 15.4279 45.0534 14.8694L45.4281 11.9814C45.4556 11.7694 45.3864 11.5563 45.2396 11.401L43.2388 9.28483C42.8519 8.8756 43.0713 8.20042 43.6249 8.09676L46.4874 7.56071C46.6974 7.52137 46.8787 7.38968 46.981 7.20205L48.3754 4.6453Z" fill="#F55D42"/>
<path d="M62.3754 4.6453C62.645 4.15087 63.355 4.15087 63.6246 4.6453L65.019 7.20205C65.1213 7.38968 65.3026 7.52137 65.5126 7.56071L68.3751 8.09676C68.9287 8.20042 69.1481 8.87561 68.7612 9.28483L66.7604 11.401C66.6136 11.5563 66.5444 11.7694 66.5719 11.9814L66.9466 14.8694C67.0191 15.4279 66.4447 15.8452 65.936 15.6037L63.3051 14.3548C63.112 14.2632 62.888 14.2632 62.6949 14.3548L60.064 15.6037C59.5553 15.8452 58.9809 15.4279 59.0534 14.8694L59.4281 11.9814C59.4556 11.7694 59.3864 11.5563 59.2396 11.401L57.2388 9.28483C56.8519 8.8756 57.0713 8.20042 57.6249 8.09676L60.4874 7.56071C60.6974 7.52137 60.8787 7.38968 60.981 7.20205L62.3754 4.6453Z" fill="#F55D42"/>
<path d="M85.6196 0.5C80.9653 0.5 77.1928 4.20716 77.1928 8.78084V12.8168C77.1928 13.6562 77.0301 14.4866 76.7126 15.2655L75.0671 19.295C74.7508 20.0713 75.6156 20.7998 76.3465 20.3743L80.4667 17.9785C81.4994 17.3776 82.6764 17.0617 83.8757 17.0617H100.573C105.227 17.0617 109 13.3545 109 8.78084C109.001 4.20716 105.229 0.5 100.575 0.5H85.6183H85.6196Z" fill="#E6E7EB"/>
<path d="M82.3906 10.3438V9.76562L84.9375 5.84375H85.8047V9.72656H86.5938V10.3438H85.8047V11.5H85.1328V10.3438H82.3906ZM83.1484 9.72656H85.1328V6.73438H85.0625L83.1484 9.67969V9.72656ZM87.7031 11.5L90.2969 6.50781V6.46875H87.3047V5.84375H91.0234V6.5L88.4375 11.5H87.7031ZM93.7188 11.5781C92.5273 11.5781 91.707 10.918 91.7109 10C91.707 9.26953 92.2148 8.66406 92.8594 8.5625V8.53125C92.2969 8.40234 91.9258 7.88281 91.9297 7.26562C91.9258 6.40234 92.6836 5.76562 93.7188 5.76562C94.75 5.76562 95.5078 6.40234 95.5156 7.26562C95.5078 7.88281 95.1328 8.40234 94.5781 8.53125V8.5625C95.2188 8.66406 95.7266 9.26953 95.7344 10C95.7266 10.918 94.8984 11.5781 93.7188 11.5781ZM92.4141 9.96094C92.4023 10.5547 92.9062 10.957 93.7188 10.9609C94.5273 10.957 95.0312 10.5547 95.0312 9.96094C95.0312 9.33594 94.4805 8.875 93.7188 8.875C92.9609 8.875 92.4023 9.33594 92.4141 9.96094ZM92.6094 7.32031C92.6133 7.89062 93.0703 8.27734 93.7188 8.28125C94.3633 8.27734 94.8281 7.89062 94.8281 7.32031C94.8281 6.75391 94.3789 6.37109 93.7188 6.375C93.0469 6.37109 92.6133 6.75391 92.6094 7.32031ZM98.6797 5.84375V11.5H97.9688V6.57812H97.9375L96.5625 7.49219V6.78125L97.9688 5.84375H98.6797ZM102.07 5.76562C103.043 5.77734 104.125 6.36328 104.125 8.44531C104.125 10.457 103.301 11.5781 101.977 11.5781C100.98 11.5781 100.281 10.9688 100.141 10.0703H100.836C100.961 10.5781 101.348 10.9531 101.977 10.9531C102.898 10.9531 103.461 10.1562 103.469 8.78125H103.391C103.066 9.25 102.547 9.53125 101.945 9.53125C100.934 9.53125 100.094 8.75391 100.094 7.66406C100.094 6.60938 100.867 5.75391 102.07 5.76562ZM100.781 7.65625C100.777 8.35547 101.309 8.91406 102.047 8.91406C102.785 8.91406 103.359 8.30469 103.359 7.64062C103.359 6.99219 102.816 6.38281 102.07 6.38281C101.332 6.38281 100.773 6.95703 100.781 7.65625Z" fill="#161616"/>
</svg>
