<svg width="400" height="400" viewBox="0 0 400 400" fill="none" xmlns="http://www.w3.org/2000/svg">
<rect width="400" height="400" fill="#0062E3"/>
<path d="M199.106 289.43C202.046 289.43 204.776 288.77 207.506 287.01L237.749 268.756C243.84 265.237 250.98 263.478 257.911 264.357C294.664 268.756 320.496 276.014 328.057 278.433C329.527 278.873 331.417 278.213 332.258 276.894C333.518 275.354 334.988 272.715 336.248 268.976C337.298 265.457 337.508 262.378 337.298 260.179C337.088 258.419 336.038 256.88 334.358 256.44C322.387 252.921 269.672 237.966 198.686 237.966C127.699 237.966 74.9845 252.921 63.0135 256.44C61.3333 256.88 60.2832 258.419 60.0732 260.179C59.8632 262.158 60.0732 265.237 61.1233 268.976C62.1734 272.715 63.8535 275.354 65.1136 276.894C66.1637 278.213 67.8439 278.873 69.314 278.433C76.8747 276.014 102.917 268.756 139.46 264.357C146.601 263.478 153.532 265.017 159.622 268.756L190.705 287.01C193.225 288.77 196.165 289.43 199.106 289.43ZM148.491 186.502C150.171 189.581 152.691 191.56 155.842 192.44C158.992 193.32 162.142 192.88 165.083 191.12C168.023 189.361 169.913 186.722 170.753 183.423C171.593 180.124 171.173 176.825 169.493 173.746L142.191 124.261C141.35 122.722 139.46 122.062 137.99 122.282C135.68 122.502 132.74 123.601 129.169 125.801C125.599 128 123.079 130.199 121.819 131.959C120.769 133.498 120.559 135.258 121.399 136.797C121.189 137.237 148.491 186.502 148.491 186.502ZM123.499 221.911C126.439 223.67 129.799 223.89 132.74 223.23C135.89 222.351 138.41 220.371 140.09 217.292C141.771 214.213 141.981 210.694 141.35 207.615C140.72 204.536 138.62 201.677 135.68 199.918L88.4257 171.327C86.9556 170.447 85.0654 170.667 83.8053 171.766C81.9151 173.086 80.025 175.725 77.9248 179.464C75.8246 183.203 74.7745 186.502 74.5645 188.701C74.3545 190.68 75.1945 192.22 76.4547 193.1L123.499 221.911ZM211.077 169.127C211.077 172.646 209.607 175.725 207.716 178.144C205.406 180.564 202.676 181.663 199.106 181.663C195.745 181.663 192.805 180.124 190.495 178.144C188.185 175.725 187.135 172.866 187.135 169.127V112.165C187.135 110.186 188.185 108.866 189.865 108.206C191.755 107.107 194.905 106.667 199.106 106.667C203.306 106.667 206.456 107.327 208.346 108.206C209.817 109.086 211.077 110.406 211.077 112.165V169.127ZM249.51 186.502C247.83 189.581 245.31 191.56 242.159 192.44C239.009 193.32 235.859 192.88 232.919 191.12C229.978 189.361 228.088 186.722 227.248 183.423C226.408 180.124 226.828 176.825 228.508 173.746L255.811 124.261C256.651 122.722 258.541 122.062 260.011 122.282C262.321 122.502 265.262 123.601 268.832 125.801C272.402 128 274.922 130.199 276.183 131.959C277.233 133.498 277.443 135.258 276.603 136.797L249.51 186.502ZM274.502 221.911C271.562 223.67 268.202 223.89 265.262 223.23C262.111 222.351 259.591 220.371 257.911 217.292C256.231 214.213 256.021 210.694 256.651 207.615C257.491 204.316 259.381 201.677 262.321 199.918L309.576 171.327C311.046 170.447 312.936 170.667 314.196 171.766C316.086 173.086 317.976 175.725 320.076 179.464C322.177 183.203 323.227 186.502 323.437 188.701C323.647 190.68 322.807 192.22 321.547 193.1L274.502 221.911Z" fill="white"/>
</svg>
